<svg id="visual" viewBox="0 0 900 600" width="900" height="600" xmlns="http://www.w3.org/2000/svg" xmlns:xlink="http://www.w3.org/1999/xlink" version="1.1"><rect x="0" y="0" width="900" height="600" fill="#001220"></rect><defs><linearGradient id="grad1_0" x1="33.3%" y1="0%" x2="100%" y2="100%"><stop offset="20%" stop-color="#001220" stop-opacity="1"></stop><stop offset="80%" stop-color="#001220" stop-opacity="1"></stop></linearGradient></defs><defs><linearGradient id="grad2_0" x1="0%" y1="0%" x2="66.7%" y2="100%"><stop offset="20%" stop-color="#001220" stop-opacity="1"></stop><stop offset="80%" stop-color="#001220" stop-opacity="1"></stop></linearGradient></defs><g transform="translate(900, 0)"><path d="M0 486.7C-40.6 493.7 -81.2 500.7 -108.3 474.5C-135.5 448.4 -149.2 389.2 -173.1 359.5C-197 329.8 -231.2 329.6 -248.8 312C-266.4 294.3 -267.5 259.2 -305.7 243.8C-343.9 228.4 -419.2 232.7 -431.6 207.8C-443.9 183 -393.2 129 -391.9 89.5C-390.6 50 -438.7 25 -486.7 0L0 0Z" fill="#FBAE3C"></path></g><g transform="translate(0, 600)"><path d="M0 -486.7C40.4 -492.8 80.8 -498.9 108.3 -474.5C135.8 -450.2 150.3 -395.6 182.7 -379.3C215 -363.1 265.1 -385.2 301.8 -378.4C338.4 -371.6 361.5 -335.7 376.1 -299.9C390.6 -264.1 396.6 -228.4 406.3 -195.7C416.1 -163 429.6 -133.4 443.6 -101.2C457.6 -69.1 472.2 -34.6 486.7 0L0 0Z" fill="#FBAE3C"></path></g></svg>